<svg xmlns="http://www.w3.org/2000/svg" xmlns:xlink="http://www.w3.org/1999/xlink" preserveAspectRatio="xMidYMid" width="49" height="26" viewBox="0 0 49 26">
  <defs>
    <style>

      .cls-2 {
        fill: #ffffff;
      }
    </style>
  </defs>
  <path d="M48.751,1.575 C48.751,1.575 24.504,26.003 24.504,26.003 C24.504,26.003 23.345,24.780 23.345,24.780 C23.345,24.780 23.359,24.766 23.359,24.766 C23.359,24.766 0.242,1.474 0.242,1.474 C-0.082,1.132 -0.082,0.577 0.242,0.236 C0.567,-0.107 1.093,-0.107 1.417,0.236 C1.417,0.236 24.561,23.555 24.561,23.555 C24.561,23.555 47.591,0.353 47.591,0.353 C47.912,0.015 48.431,0.015 48.751,0.353 C49.071,0.690 49.071,1.237 48.751,1.575 Z" id="path-1" class="cls-2" fill-rule="evenodd"/>
</svg>
