<svg xmlns="http://www.w3.org/2000/svg" xmlns:xlink="http://www.w3.org/1999/xlink" preserveAspectRatio="xMidYMid" width="6" height="10" viewBox="0 0 6 10">
  <defs>
    <style>

      .cls-2 {
        fill: #ffffff;
      }
    </style>
  </defs>
  <path d="M4.780,5.625 C4.780,5.625 4.745,5.591 4.745,5.591 C4.745,5.591 1.474,8.727 1.474,8.727 C1.132,9.051 0.577,9.051 0.235,8.727 C-0.107,8.402 -0.107,7.877 0.235,7.552 C0.235,7.552 3.513,4.409 3.513,4.409 C3.513,4.409 0.352,1.378 0.352,1.378 C0.015,1.058 0.015,0.539 0.352,0.218 C0.690,-0.102 1.237,-0.102 1.575,0.218 C1.575,0.218 6.003,4.465 6.003,4.465 C6.003,4.465 4.780,5.625 4.780,5.625 Z" id="path-1" class="cls-2" fill-rule="evenodd"/>
</svg>
