<svg xmlns="http://www.w3.org/2000/svg" xmlns:xlink="http://www.w3.org/1999/xlink" preserveAspectRatio="xMidYMid" width="50" height="50" viewBox="0 0 50 50">
  <defs>
    <style>

      .cls-3 {
        fill: #ffffff;
      }

      .cls-4 {
        fill: #131313;
      }
    </style>
  </defs>
  <g id="bt-back">
    <circle id="circle-1" class="cls-3" cx="25" cy="25" r="25"/>
    <path d="M27.718,17.691 C27.718,17.691 27.720,17.694 27.720,17.694 C27.720,17.694 21.388,25.000 21.388,25.000 C21.388,25.000 27.720,32.306 27.720,32.306 C27.720,32.306 27.718,32.309 27.718,32.309 C27.891,32.489 28.000,32.731 28.000,33.000 C28.000,33.552 27.552,34.000 27.000,34.000 C26.717,34.000 26.464,33.880 26.282,33.691 C26.282,33.691 26.280,33.694 26.280,33.694 C26.280,33.694 19.280,25.694 19.280,25.694 C19.280,25.694 19.282,25.691 19.282,25.691 C19.109,25.512 19.000,25.269 19.000,25.000 C19.000,24.731 19.109,24.489 19.282,24.309 C19.282,24.309 19.280,24.306 19.280,24.306 C19.280,24.306 26.280,16.307 26.280,16.307 C26.280,16.307 26.282,16.309 26.282,16.309 C26.464,16.120 26.717,16.000 27.000,16.000 C27.552,16.000 28.000,16.448 28.000,17.000 C28.000,17.270 27.891,17.512 27.718,17.691 Z" id="path-1" class="cls-4" fill-rule="evenodd"/>
  </g>
</svg>
