<svg xmlns="http://www.w3.org/2000/svg" xmlns:xlink="http://www.w3.org/1999/xlink" preserveAspectRatio="xMidYMid" width="17" height="17" viewBox="0 0 17 17">
  <defs>
    <style>

      .cls-2 {
        fill: #000000;
      }
    </style>
  </defs>
  <path d="M14.479,15.893 C14.479,15.893 8.094,9.508 8.094,9.508 C8.094,9.508 1.709,15.893 1.709,15.893 C1.318,16.283 0.685,16.283 0.295,15.893 C-0.096,15.502 -0.096,14.869 0.295,14.479 C0.295,14.479 6.680,8.094 6.680,8.094 C6.680,8.094 0.295,1.709 0.295,1.709 C-0.096,1.318 -0.096,0.685 0.295,0.295 C0.685,-0.096 1.318,-0.096 1.709,0.295 C1.709,0.295 8.094,6.680 8.094,6.680 C8.094,6.680 14.479,0.295 14.479,0.295 C14.869,-0.096 15.502,-0.096 15.893,0.295 C16.283,0.685 16.283,1.318 15.893,1.709 C15.893,1.709 9.508,8.094 9.508,8.094 C9.508,8.094 15.893,14.479 15.893,14.479 C16.283,14.869 16.283,15.502 15.893,15.893 C15.502,16.283 14.869,16.283 14.479,15.893 Z" id="path-1" class="cls-2" fill-rule="evenodd"/>
</svg>
