<svg xmlns="http://www.w3.org/2000/svg" xmlns:xlink="http://www.w3.org/1999/xlink" preserveAspectRatio="xMidYMid" width="50" height="50" viewBox="0 0 50 50">
  <defs>
    <style>

      .cls-3 {
        fill: #ffffff;
      }

      .cls-4 {
        fill: #000000;
      }
    </style>
  </defs>
  <g id="bt-close">
    <circle id="circle-1" class="cls-3" cx="25" cy="25" r="25"/>
    <path d="M31.385,32.799 C31.385,32.799 25.000,26.414 25.000,26.414 C25.000,26.414 18.615,32.799 18.615,32.799 C18.225,33.190 17.591,33.190 17.201,32.799 C16.810,32.409 16.810,31.775 17.201,31.385 C17.201,31.385 23.586,25.000 23.586,25.000 C23.586,25.000 17.201,18.615 17.201,18.615 C16.810,18.225 16.810,17.592 17.201,17.201 C17.591,16.811 18.225,16.811 18.615,17.201 C18.615,17.201 25.000,23.586 25.000,23.586 C25.000,23.586 31.385,17.201 31.385,17.201 C31.775,16.811 32.408,16.811 32.799,17.201 C33.189,17.592 33.190,18.225 32.799,18.615 C32.799,18.615 26.414,25.000 26.414,25.000 C26.414,25.000 32.799,31.385 32.799,31.385 C33.190,31.775 33.189,32.409 32.799,32.799 C32.408,33.190 31.775,33.190 31.385,32.799 Z" id="path-1" class="cls-4" fill-rule="evenodd"/>
  </g>
</svg>
