<svg xmlns="http://www.w3.org/2000/svg" xmlns:xlink="http://www.w3.org/1999/xlink" preserveAspectRatio="xMidYMid" width="36" height="27" viewBox="0 0 36 27">
  <defs>
    <style>

      .cls-2 {
        fill: #f6f4ec;
      }
    </style>
  </defs>
  <path d="M35.977,2.258 C35.977,1.010 34.975,0.008 33.729,0.008 C33.729,0.008 2.256,0.008 2.256,0.008 C1.009,0.008 0.008,1.010 0.008,2.258 C0.008,2.258 17.992,15.758 17.992,15.758 C17.992,15.758 35.977,2.258 35.977,2.258 ZM0.008,6.301 C0.008,6.301 0.008,24.758 0.008,24.758 C0.008,26.006 1.009,27.008 2.256,27.008 C2.256,27.008 33.729,27.008 33.729,27.008 C34.975,27.008 35.977,26.006 35.977,24.758 C35.977,24.758 35.977,6.301 35.977,6.301 C35.977,6.301 17.992,19.801 17.992,19.801 C17.992,19.801 0.008,6.301 0.008,6.301 Z" id="path-1" class="cls-2" fill-rule="evenodd"/>
</svg>
