<svg xmlns="http://www.w3.org/2000/svg" xmlns:xlink="http://www.w3.org/1999/xlink" preserveAspectRatio="xMidYMid" width="30" height="30" viewBox="0 0 30 30">
  <defs>
    <style>

      .cls-3 {
        fill: #0098ef;
        filter: url(#color-overlay-1);
      }

      .cls-4 {
        fill: #ffffff;
      }
    </style>

    <filter id="color-overlay-1" filterUnits="userSpaceOnUse">
      <feFlood flood-color="#333333" flood-opacity="1"/>
      <feComposite operator="in" in2="SourceGraphic"/>
      <feBlend mode="normal" in2="SourceGraphic" result="colorOverlay"/>
    </filter>
  </defs>
  <g id="group-2">
    <circle id="circle-1" class="cls-3" cx="15" cy="15" r="15"/>
    <path d="M22.202,21.000 C22.202,21.000 7.798,21.000 7.798,21.000 C7.357,21.000 7.000,20.642 7.000,20.200 C7.000,20.200 7.000,9.800 7.000,9.800 C7.000,9.358 7.357,9.000 7.798,9.000 C7.798,9.000 22.202,9.000 22.202,9.000 C22.643,9.000 23.000,9.358 23.000,9.800 C23.000,9.800 23.000,20.200 23.000,20.200 C23.000,20.642 22.643,21.000 22.202,21.000 ZM8.597,19.400 C8.597,19.400 21.403,19.400 21.403,19.400 C21.403,19.400 21.403,11.299 21.403,11.299 C21.403,11.299 15.515,16.041 15.515,16.041 C15.317,16.200 15.069,16.249 14.840,16.197 C14.705,16.177 14.574,16.122 14.460,16.030 C14.460,16.030 8.597,11.314 8.597,11.314 C8.597,11.314 8.597,19.400 8.597,19.400 ZM10.260,10.600 C10.260,10.600 14.994,14.408 14.994,14.408 C14.994,14.408 19.723,10.600 19.723,10.600 C19.723,10.600 10.260,10.600 10.260,10.600 Z" id="path-1" class="cls-4" fill-rule="evenodd"/>
  </g>
</svg>
