<svg xmlns="http://www.w3.org/2000/svg" xmlns:xlink="http://www.w3.org/1999/xlink" preserveAspectRatio="xMidYMid" width="30" height="30" viewBox="0 0 30 30">
  <defs>
    <style>

      .cls-3 {
        fill: #222222;
      }

      .cls-4 {
        fill: #f4f2ef;
      }
    </style>
  </defs>
  <g id="group-3">
    <circle id="circle-1" class="cls-3" cx="15" cy="15" r="15"/>
    <path d="M21.259,8.000 C21.259,8.000 8.765,8.000 8.765,8.000 C8.331,8.000 8.000,8.357 8.000,8.765 C8.000,8.765 8.000,21.235 8.000,21.235 C8.000,21.668 8.357,22.000 8.765,22.000 C8.765,22.000 15.471,22.000 15.471,22.000 C15.471,22.000 15.471,16.594 15.471,16.594 C15.471,16.594 13.635,16.594 13.635,16.594 C13.635,16.594 13.635,14.477 13.635,14.477 C13.635,14.477 15.471,14.477 15.471,14.477 C15.471,14.477 15.471,12.922 15.471,12.922 C15.471,11.111 16.567,10.117 18.199,10.117 C18.964,10.117 19.627,10.168 19.831,10.193 C19.831,10.193 19.831,12.080 19.831,12.080 C19.831,12.080 18.709,12.080 18.709,12.080 C17.842,12.080 17.664,12.488 17.664,13.100 C17.664,13.100 17.664,14.452 17.664,14.452 C17.664,14.452 19.754,14.452 19.754,14.452 C19.754,14.452 19.474,16.568 19.474,16.568 C19.474,16.568 17.664,16.568 17.664,16.568 C17.664,16.568 17.664,22.000 17.664,22.000 C17.664,22.000 21.233,22.000 21.233,22.000 C21.667,22.000 21.998,21.643 21.998,21.235 C21.998,21.235 21.998,8.765 21.998,8.765 C22.024,8.357 21.667,8.000 21.259,8.000 Z" id="path-1" class="cls-4" fill-rule="evenodd"/>
  </g>
</svg>
