<svg xmlns="http://www.w3.org/2000/svg" xmlns:xlink="http://www.w3.org/1999/xlink" preserveAspectRatio="xMidYMid" width="30" height="30" viewBox="0 0 30 30">
  <defs>
    <style>

      .cls-3 {
        fill: #222222;
      }

      .cls-4 {
        fill: #ffffff;
      }
    </style>
  </defs>
  <g id="about">
    <circle id="circle-1" class="cls-3" cx="15" cy="15" r="15"/>
    <path d="M17.577,18.355 C16.275,20.069 15.311,21.012 14.170,21.012 C13.688,21.012 13.368,20.647 13.368,20.107 C13.368,19.183 14.990,14.811 14.990,14.157 C14.990,13.925 14.937,13.714 14.723,13.714 C14.277,13.714 13.707,14.561 13.368,14.908 C13.368,14.908 13.011,14.446 13.011,14.446 C13.688,13.598 15.258,11.788 16.328,11.788 C16.917,11.788 17.309,11.961 17.309,12.809 C17.309,13.791 15.472,18.239 15.472,19.029 C15.472,19.163 15.544,19.279 15.686,19.279 C16.096,19.279 17.006,18.182 17.238,17.931 C17.238,17.931 17.577,18.355 17.577,18.355 ZM16.881,6.993 C17.469,6.993 17.987,7.551 17.987,8.187 C17.987,8.822 17.469,9.381 16.881,9.381 C16.292,9.381 15.775,8.822 15.775,8.187 C15.775,7.551 16.292,6.993 16.881,6.993 Z" id="path-1" class="cls-4" fill-rule="evenodd"/>
  </g>
</svg>
