<svg xmlns="http://www.w3.org/2000/svg" xmlns:xlink="http://www.w3.org/1999/xlink" preserveAspectRatio="xMidYMid" width="80" height="21" viewBox="0 0 80 21">
  <defs>
    <style>

      .cls-2 {
        fill: #484848;
      }
    </style>
  </defs>
  <path d="M78.691,15.626 C78.691,15.709 78.691,15.792 78.691,15.875 C78.691,17.381 78.936,17.959 79.996,18.752 C79.996,18.752 78.066,21.002 78.066,21.002 C77.224,20.647 76.463,20.015 76.108,19.301 C75.837,19.576 75.538,19.850 75.266,20.043 C74.587,20.535 73.608,20.811 72.466,20.811 C69.367,20.811 67.682,19.220 67.682,16.422 C67.682,13.130 69.938,11.595 74.368,11.595 C74.641,11.595 74.886,11.595 75.184,11.622 C75.184,11.622 75.184,11.046 75.184,11.046 C75.184,9.483 74.886,8.963 73.554,8.963 C72.384,8.963 71.026,9.538 69.530,10.554 C69.530,10.554 67.980,7.919 67.980,7.919 C68.716,7.453 69.259,7.179 70.237,6.769 C71.596,6.193 72.765,5.947 74.043,5.947 C76.382,5.947 77.985,6.823 78.529,8.385 C78.719,8.963 78.800,9.400 78.773,10.910 C78.773,10.910 78.691,15.626 78.691,15.626 ZM74.968,14.147 C72.439,14.147 71.568,14.613 71.568,16.285 C71.568,17.381 72.249,18.122 73.173,18.122 C73.852,18.122 74.531,17.766 75.075,17.163 C75.075,17.163 75.131,14.147 75.131,14.147 C75.131,14.147 74.968,14.147 74.968,14.147 ZM64.365,20.616 C62.817,20.616 61.567,19.877 61.131,18.698 C60.859,17.985 60.806,17.546 60.806,15.543 C60.806,15.543 60.806,5.066 60.806,5.066 C60.806,3.229 60.750,2.104 60.614,0.843 C60.614,0.843 64.339,-0.006 64.339,-0.006 C64.476,0.760 64.528,1.667 64.528,3.641 C64.528,3.641 64.528,14.585 64.528,14.585 C64.528,16.998 64.555,17.327 64.773,17.712 C64.909,17.959 65.209,18.095 65.508,18.095 C65.644,18.095 65.726,18.095 65.915,18.041 C65.915,18.041 66.541,20.233 66.541,20.233 C65.915,20.481 65.155,20.616 64.365,20.616 ZM56.810,20.616 C55.260,20.616 54.010,19.877 53.575,18.698 C53.302,17.985 53.248,17.546 53.248,15.543 C53.248,15.543 53.248,5.066 53.248,5.066 C53.248,3.229 53.195,2.104 53.058,0.843 C53.058,0.843 56.782,-0.006 56.782,-0.006 C56.918,0.760 56.972,1.667 56.972,3.641 C56.972,3.641 56.972,14.585 56.972,14.585 C56.972,16.998 57.000,17.327 57.216,17.712 C57.352,17.959 57.654,18.095 57.951,18.095 C58.087,18.095 58.169,18.095 58.358,18.041 C58.358,18.041 58.985,20.233 58.985,20.233 C58.358,20.481 57.598,20.616 56.810,20.616 ZM48.518,4.656 C47.295,4.656 46.290,3.641 46.290,2.380 C46.290,1.118 47.323,0.103 48.573,0.103 C49.797,0.103 50.776,1.118 50.776,2.380 C50.776,3.641 49.768,4.656 48.518,4.656 ZM43.981,20.289 C43.981,20.289 33.732,20.289 33.732,20.289 C33.732,20.289 33.732,18.013 33.732,18.013 C33.732,18.013 40.284,8.826 40.284,8.826 C40.284,8.826 34.276,8.826 34.276,8.826 C34.276,8.826 34.276,6.247 34.276,6.247 C34.276,6.247 44.606,6.247 44.606,6.247 C44.606,6.247 44.606,8.768 44.606,8.768 C44.606,8.768 38.463,17.737 38.463,17.737 C38.463,17.737 44.850,17.737 44.850,17.737 C44.850,17.737 43.981,20.289 43.981,20.289 ZM26.558,20.591 C22.777,20.591 20.306,17.737 20.306,13.323 C20.306,8.907 22.806,5.971 26.558,5.971 C28.542,5.971 30.091,6.657 31.287,8.084 C32.403,9.400 32.892,10.937 32.892,13.213 C32.892,15.626 32.348,17.271 31.152,18.642 C30.091,19.850 28.705,20.591 26.558,20.591 ZM28.189,9.427 C27.834,8.963 27.263,8.687 26.612,8.687 C25.742,8.687 25.034,9.236 24.736,10.114 C24.491,10.853 24.356,11.842 24.356,13.242 C24.356,14.858 24.518,16.065 24.817,16.778 C25.144,17.546 25.959,17.930 26.665,17.930 C28.242,17.930 28.922,16.502 28.922,13.186 C28.922,11.293 28.678,10.058 28.189,9.427 ZM14.735,11.019 C14.735,9.344 14.544,9.017 13.591,9.017 C12.912,9.017 11.961,9.483 11.173,10.195 C11.173,10.195 11.173,20.289 11.173,20.289 C11.173,20.289 7.720,20.289 7.720,20.289 C7.720,20.289 7.720,11.156 7.720,11.156 C7.720,9.400 7.476,8.989 6.468,8.989 C5.790,8.989 4.867,9.344 4.077,10.058 C4.077,10.058 4.077,20.289 4.077,20.289 C4.077,20.289 0.516,20.289 0.516,20.289 C0.516,20.289 0.516,10.498 0.516,10.498 C0.516,8.470 0.381,7.591 -0.001,6.903 C-0.001,6.903 3.290,5.999 3.290,5.999 C3.533,6.384 3.642,6.713 3.778,7.426 C4.730,6.493 5.899,5.999 7.177,5.999 C8.318,5.999 9.271,6.384 10.002,7.152 C10.193,7.343 10.384,7.591 10.547,7.836 C11.825,6.521 12.967,5.999 14.491,5.999 C15.577,5.999 16.610,6.328 17.234,6.877 C18.023,7.563 18.268,8.385 18.268,10.305 C18.268,10.305 18.268,20.289 18.268,20.289 C18.268,20.289 14.735,20.289 14.735,20.289 C14.735,20.289 14.735,11.019 14.735,11.019 ZM50.341,20.289 C50.341,20.289 46.696,20.289 46.696,20.289 C46.696,20.289 46.696,6.493 46.696,6.493 C46.696,6.493 50.341,5.918 50.341,5.918 C50.341,5.918 50.341,20.289 50.341,20.289 Z" id="path-1" class="cls-2" fill-rule="evenodd"/>
</svg>
