<svg xmlns="http://www.w3.org/2000/svg" xmlns:xlink="http://www.w3.org/1999/xlink" preserveAspectRatio="xMidYMid" width="30" height="30" viewBox="0 0 30 30">
  <defs>
    <style>

      .cls-3 {
        fill: #222222;
      }

      .cls-4 {
        fill: #f4f2ef;
      }
    </style>
  </defs>
  <g id="group-2">
    <circle id="circle-1" class="cls-3" cx="15" cy="15" r="15"/>
    <path d="M15.000,16.000 C15.000,16.000 8.000,11.000 8.000,11.000 C8.000,11.000 22.014,11.014 22.000,11.000 C22.000,11.000 15.000,16.000 15.000,16.000 ZM15.000,17.000 C15.000,17.000 21.998,11.963 21.998,12.015 C21.998,12.015 21.998,20.256 21.998,20.256 C21.998,20.653 21.667,21.000 21.233,21.000 C21.233,21.000 17.664,21.000 17.664,21.000 C17.664,21.000 15.471,21.000 15.471,21.000 C15.471,21.000 8.765,21.000 8.765,21.000 C8.357,21.000 8.000,20.677 8.000,20.256 C8.000,20.256 8.000,12.015 8.000,12.015 C8.000,12.037 15.000,17.000 15.000,17.000 Z" id="path-1" class="cls-4" fill-rule="evenodd"/>
  </g>
</svg>
