<svg xmlns="http://www.w3.org/2000/svg" xmlns:xlink="http://www.w3.org/1999/xlink" preserveAspectRatio="xMidYMid" width="36" height="36" viewBox="0 0 36 36">
  <defs>
    <style>

      .cls-2 {
        fill: #ffffff;
      }
    </style>
  </defs>
  <path d="M18.000,36.000 C8.059,36.000 -0.000,27.941 -0.000,18.000 C-0.000,8.059 8.059,0.000 18.000,0.000 C27.941,0.000 36.000,8.059 36.000,18.000 C36.000,27.941 27.941,36.000 18.000,36.000 ZM18.000,1.875 C9.094,1.875 1.875,9.094 1.875,18.000 C1.875,26.906 9.094,34.125 18.000,34.125 C26.906,34.125 34.125,26.906 34.125,18.000 C34.125,9.094 26.906,1.875 18.000,1.875 ZM19.000,23.000 C19.000,23.000 17.000,23.000 17.000,23.000 C17.000,23.000 17.000,18.994 17.000,18.994 C17.000,18.994 12.988,18.994 12.988,18.994 C12.988,18.994 12.988,17.013 12.988,17.013 C12.988,17.013 17.000,17.013 17.000,17.013 C17.000,17.013 17.000,13.000 17.000,13.000 C17.000,13.000 19.000,13.000 19.000,13.000 C19.000,13.000 19.000,17.013 19.000,17.013 C19.000,17.013 23.000,17.013 23.000,17.013 C23.000,17.013 23.000,18.994 23.000,18.994 C23.000,18.994 19.000,18.994 19.000,18.994 C19.000,18.994 19.000,23.000 19.000,23.000 Z" id="path-1" class="cls-2" fill-rule="evenodd"/>
</svg>
