<svg xmlns="http://www.w3.org/2000/svg" xmlns:xlink="http://www.w3.org/1999/xlink" preserveAspectRatio="xMidYMid" width="30" height="30" viewBox="0 0 30 30">
  <defs>
    <style>

      .cls-3 {
        fill: #0098ef;
        filter: url(#color-overlay-1);
      }

      .cls-4 {
        fill: #ffffff;
      }
    </style>

    <filter id="color-overlay-1" filterUnits="userSpaceOnUse">
      <feFlood flood-color="#333333" flood-opacity="1"/>
      <feComposite operator="in" in2="SourceGraphic"/>
      <feBlend mode="normal" in2="SourceGraphic" result="colorOverlay"/>
    </filter>
  </defs>
  <g id="group-1">
    <circle id="circle-1" class="cls-3" cx="15" cy="15" r="15"/>
    <path d="M18.025,16.789 C17.514,16.789 17.050,16.998 16.699,17.338 C16.699,17.338 12.924,15.286 12.924,15.286 C12.939,15.181 12.949,15.075 12.949,14.966 C12.949,14.904 12.945,14.844 12.940,14.783 C12.940,14.783 16.751,12.712 16.751,12.712 C17.095,13.022 17.540,13.210 18.026,13.210 C19.116,13.210 20.000,12.268 20.000,11.105 C20.000,9.943 19.116,9.000 18.026,9.000 C16.935,9.000 16.051,9.942 16.051,11.105 C16.051,11.169 16.055,11.233 16.060,11.295 C16.060,11.295 12.254,13.364 12.254,13.364 C11.909,13.051 11.463,12.861 10.975,12.861 C9.884,12.861 9.000,13.803 9.000,14.966 C9.000,16.128 9.884,17.071 10.975,17.071 C11.415,17.071 11.819,16.916 12.147,16.657 C12.147,16.657 16.056,18.781 16.056,18.781 C16.054,18.819 16.051,18.856 16.051,18.894 C16.051,20.057 16.935,20.999 18.025,20.999 C19.116,20.999 20.000,20.057 20.000,18.894 C20.000,17.732 19.116,16.789 18.025,16.789 Z" id="path-1" class="cls-4" fill-rule="evenodd"/>
  </g>
</svg>
