<svg xmlns="http://www.w3.org/2000/svg" xmlns:xlink="http://www.w3.org/1999/xlink" preserveAspectRatio="xMidYMid" width="18" height="18" viewBox="0 0 18 18">
  <defs>
    <style>

      .cls-2 {
        fill: #222222;
      }
    </style>
  </defs>
  <path d="M15.442,17.156 C15.442,17.156 15.433,17.156 15.433,17.156 C14.486,17.156 13.719,16.389 13.719,15.442 C13.719,15.442 13.719,15.433 13.719,15.433 C13.719,14.486 14.486,13.719 15.433,13.719 C15.433,13.719 15.442,13.719 15.442,13.719 C16.389,13.719 17.156,14.486 17.156,15.433 C17.156,15.433 17.156,15.442 17.156,15.442 C17.156,16.389 16.389,17.156 15.442,17.156 ZM15.442,10.281 C15.442,10.281 15.433,10.281 15.433,10.281 C14.486,10.281 13.719,9.514 13.719,8.567 C13.719,8.567 13.719,8.558 13.719,8.558 C13.719,7.611 14.486,6.844 15.433,6.844 C15.433,6.844 15.442,6.844 15.442,6.844 C16.389,6.844 17.156,7.611 17.156,8.558 C17.156,8.558 17.156,8.567 17.156,8.567 C17.156,9.514 16.389,10.281 15.442,10.281 ZM15.442,3.438 C15.442,3.438 15.433,3.438 15.433,3.438 C14.486,3.438 13.719,2.670 13.719,1.723 C13.719,1.723 13.719,1.714 13.719,1.714 C13.719,0.768 14.486,0.000 15.433,0.000 C15.433,0.000 15.442,0.000 15.442,0.000 C16.389,0.000 17.156,0.768 17.156,1.714 C17.156,1.714 17.156,1.723 17.156,1.723 C17.156,2.670 16.389,3.438 15.442,3.438 ZM8.598,17.156 C8.598,17.156 8.589,17.156 8.589,17.156 C7.643,17.156 6.875,16.389 6.875,15.442 C6.875,15.442 6.875,15.433 6.875,15.433 C6.875,14.486 7.643,13.719 8.589,13.719 C8.589,13.719 8.598,13.719 8.598,13.719 C9.545,13.719 10.313,14.486 10.313,15.433 C10.313,15.433 10.313,15.442 10.313,15.442 C10.313,16.389 9.545,17.156 8.598,17.156 ZM8.598,10.281 C8.598,10.281 8.589,10.281 8.589,10.281 C7.643,10.281 6.875,9.514 6.875,8.567 C6.875,8.567 6.875,8.558 6.875,8.558 C6.875,7.611 7.643,6.844 8.589,6.844 C8.589,6.844 8.598,6.844 8.598,6.844 C9.545,6.844 10.313,7.611 10.313,8.558 C10.313,8.558 10.313,8.567 10.313,8.567 C10.313,9.514 9.545,10.281 8.598,10.281 ZM8.598,3.438 C8.598,3.438 8.589,3.438 8.589,3.438 C7.643,3.438 6.875,2.670 6.875,1.723 C6.875,1.723 6.875,1.714 6.875,1.714 C6.875,0.768 7.643,0.000 8.589,0.000 C8.589,0.000 8.598,0.000 8.598,0.000 C9.545,0.000 10.313,0.768 10.313,1.714 C10.313,1.714 10.313,1.723 10.313,1.723 C10.313,2.670 9.545,3.438 8.598,3.438 ZM1.723,17.156 C1.723,17.156 1.714,17.156 1.714,17.156 C0.768,17.156 0.000,16.389 0.000,15.442 C0.000,15.442 0.000,15.433 0.000,15.433 C0.000,14.486 0.768,13.719 1.714,13.719 C1.714,13.719 1.723,13.719 1.723,13.719 C2.670,13.719 3.438,14.486 3.438,15.433 C3.438,15.433 3.438,15.442 3.438,15.442 C3.438,16.389 2.670,17.156 1.723,17.156 ZM1.723,10.281 C1.723,10.281 1.714,10.281 1.714,10.281 C0.768,10.281 0.000,9.514 0.000,8.567 C0.000,8.567 0.000,8.558 0.000,8.558 C0.000,7.611 0.768,6.844 1.714,6.844 C1.714,6.844 1.723,6.844 1.723,6.844 C2.670,6.844 3.438,7.611 3.438,8.558 C3.438,8.558 3.438,8.567 3.438,8.567 C3.438,9.514 2.670,10.281 1.723,10.281 ZM1.723,3.438 C1.723,3.438 1.714,3.438 1.714,3.438 C0.768,3.438 0.000,2.670 0.000,1.723 C0.000,1.723 0.000,1.714 0.000,1.714 C0.000,0.768 0.768,0.000 1.714,0.000 C1.714,0.000 1.723,0.000 1.723,0.000 C2.670,0.000 3.438,0.768 3.438,1.714 C3.438,1.714 3.438,1.723 3.438,1.723 C3.438,2.670 2.670,3.438 1.723,3.438 Z" id="path-1" class="cls-2" fill-rule="evenodd"/>
</svg>
