<svg xmlns="http://www.w3.org/2000/svg" xmlns:xlink="http://www.w3.org/1999/xlink" preserveAspectRatio="xMidYMid" width="36" height="30" viewBox="0 0 36 30">
  <defs>
    <style>

      .cls-2 {
        fill: #f6f4ec;
      }
    </style>
  </defs>
  <path d="M35.977,3.459 C34.642,4.057 33.237,4.461 31.726,4.637 C33.272,3.723 34.431,2.264 34.975,0.541 C33.570,1.385 31.972,2.000 30.321,2.334 C28.934,0.928 27.020,0.014 24.894,0.014 C20.820,0.014 17.536,3.301 17.536,7.379 C17.536,7.959 17.571,8.557 17.694,9.084 C11.582,8.750 6.172,5.973 2.502,1.508 C1.887,2.598 1.501,3.723 1.501,5.094 C1.501,7.625 2.800,9.875 4.802,11.211 C3.591,11.176 2.467,10.842 1.466,10.297 C1.466,10.350 1.466,10.350 1.466,10.385 C1.466,13.971 4.012,16.959 7.384,17.627 C6.752,17.803 6.085,17.891 5.417,17.891 C4.961,17.891 4.504,17.838 4.047,17.750 C4.961,20.668 7.718,22.848 10.914,22.883 C8.420,24.887 5.206,26.381 1.764,26.381 C1.167,26.381 0.587,26.346 0.008,26.258 C3.257,28.350 7.173,29.264 11.336,29.264 C24.894,29.264 32.306,18.014 32.306,8.258 C32.306,7.924 32.306,7.625 32.306,7.291 C33.729,6.254 34.975,4.971 35.977,3.459 Z" id="path-1" class="cls-2" fill-rule="evenodd"/>
</svg>
