<svg xmlns="http://www.w3.org/2000/svg" xmlns:xlink="http://www.w3.org/1999/xlink" preserveAspectRatio="xMidYMid" width="30" height="30" viewBox="0 0 30 30">
  <defs>
    <style>

      .cls-3 {
        fill: #222222;
      }

      .cls-4 {
        fill: #ffffff;
      }
    </style>
  </defs>
  <g id="group-1">
    <circle id="circle-1" class="cls-3" cx="15" cy="15" r="15"/>
    <path d="M22.979,11.428 C22.979,11.428 22.979,11.428 22.979,11.428 C22.979,11.428 22.979,11.428 22.979,11.428 M18.371,10.000 C16.679,10.000 15.286,11.366 15.286,13.021 C15.286,13.248 15.307,13.497 15.371,13.703 C12.800,13.600 10.550,12.379 9.029,10.559 C8.771,11.014 8.621,11.531 8.621,12.090 C8.621,13.145 9.157,14.076 9.993,14.614 C9.479,14.593 9.007,14.469 8.600,14.241 C8.600,14.262 8.600,14.262 8.600,14.283 C8.600,15.752 9.671,16.972 11.064,17.262 C10.807,17.324 10.529,17.366 10.250,17.366 C10.057,17.366 9.864,17.345 9.671,17.303 C10.057,18.483 11.193,19.352 12.543,19.393 C11.493,20.200 10.164,20.697 8.729,20.697 C8.471,20.697 8.236,20.676 8.000,20.655 C9.350,21.503 10.957,22.000 12.693,22.000 C18.350,22.000 21.457,17.386 21.457,13.372 C21.457,13.248 21.457,13.103 21.457,12.979 C22.057,12.545 22.571,12.028 23.000,11.407 C22.443,11.655 21.864,11.821 21.243,11.883 C21.886,11.510 22.357,10.910 22.593,10.207 C21.993,10.559 21.350,10.807 20.643,10.952 C20.043,10.372 19.250,10.000 18.371,10.000 " id="path-1" class="cls-4" fill-rule="evenodd"/>
  </g>
</svg>
