<svg xmlns="http://www.w3.org/2000/svg" xmlns:xlink="http://www.w3.org/1999/xlink" preserveAspectRatio="xMidYMid" width="56" height="56" viewBox="0 0 56 56">
  <defs>
    <style>

      .cls-3 {
        fill: #ffffff;
        opacity: 0.5;
      }

      .cls-4 {
        font-size: 32px;
        opacity: 0.5;
      }

      .cls-5 {
        fill: #ffffff;
        font-size: 32px;
        font-family: "FiraSans-Light";
        text-transform: uppercase;
      }
    </style>
  </defs>
  <g id="group-1">
    <path d="M54.810,30.808 C54.810,30.808 30.808,54.810 30.808,54.810 C29.249,56.369 26.720,56.369 25.161,54.810 C25.161,54.810 1.159,30.808 1.159,30.808 C-0.400,29.249 -0.400,26.720 1.159,25.161 C1.159,25.161 25.161,1.159 25.161,1.159 C26.720,-0.400 29.249,-0.400 30.808,1.159 C30.808,1.159 54.810,25.161 54.810,25.161 C56.369,26.720 56.369,29.249 54.810,30.808 ZM53.398,26.573 C53.398,26.573 29.396,2.571 29.396,2.571 C28.617,1.791 27.352,1.791 26.573,2.571 C26.573,2.571 2.571,26.573 2.571,26.573 C1.791,27.352 1.791,28.617 2.571,29.396 C2.571,29.396 26.573,53.398 26.573,53.398 C27.352,54.178 28.617,54.178 29.396,53.398 C29.396,53.398 53.398,29.396 53.398,29.396 C54.177,28.617 54.177,27.352 53.398,26.573 Z" id="path-1" class="cls-3" fill-rule="evenodd"/>
    <text class="cls-4" x="24px" y="40px"><tspan class="cls-5">!</tspan></text>
  </g>
</svg>
