<svg xmlns="http://www.w3.org/2000/svg" preserveAspectRatio="xMidYMid" width="50" height="50" viewBox="0 0 50 50"><defs><style>.cls-3 { fill: #ffffff; } .cls-4 { fill: #131313; }</style></defs><g id="bt-back"><circle id="circle-1" class="cls-3" cx="25" cy="25" r="25"/><path d="M27.718 17.69l.002.004L21.388 25l6.332 7.306-.002.003c.173.18.282.42.282.69 0 .552-.448 1-1 1-.283 0-.536-.12-.718-.31l-.002.004-7-8 .002-.003C19.11 25.513 19 25.27 19 25c0-.27.11-.51.282-.69l-.002-.004 7-8 .002.003c.182-.19.435-.31.718-.31.552 0 1 .448 1 1 0 .27-.11.512-.282.69z" id="path-1" class="cls-4" fill-rule="evenodd"/></g></svg>