<svg xmlns="http://www.w3.org/2000/svg" preserveAspectRatio="xMidYMid" width="17" height="17" viewBox="0 0 17 17"><defs><style>.cls-2 { fill: #000000; }</style></defs><path d="M14.48 15.893L8.093 9.508 1.71 15.893c-.392.39-1.025.39-1.415 0-.39-.39-.39-1.024 0-1.414L6.68 8.093.295 1.71c-.39-.392-.39-1.025 0-1.415.39-.39 1.023-.39 1.414 0L8.093 6.68 14.48.295c.39-.39 1.022-.39 1.413 0 .39.39.39 1.023 0 1.414L9.508 8.093l6.385 6.385c.39.39.39 1.022 0 1.413-.39.39-1.024.39-1.414 0z" id="path-1" class="cls-2" fill-rule="evenodd"/></svg>