<svg xmlns="http://www.w3.org/2000/svg" preserveAspectRatio="xMidYMid" width="50" height="50" viewBox="0 0 50 50"><defs><style>.cls-3 { fill: #000000; } .cls-4 { fill: #ffffff; }</style></defs><g id="bt-close_inverted"><circle id="circle-1" class="cls-3" cx="25" cy="25" r="25"/><path d="M31.385 32.8L25 26.413 18.615 32.8c-.39.39-1.024.39-1.414 0-.39-.39-.39-1.025 0-1.415L23.587 25 17.2 18.615c-.39-.39-.39-1.023 0-1.414.39-.39 1.025-.39 1.415 0L25 23.587l6.385-6.385c.39-.39 1.023-.39 1.414 0 .39.392.39 1.025 0 1.415L26.413 25l6.385 6.385c.39.39.39 1.024 0 1.414-.392.39-1.025.39-1.415 0z" id="path-1" class="cls-4" fill-rule="evenodd"/></g></svg>