<svg xmlns="http://www.w3.org/2000/svg" preserveAspectRatio="xMidYMid" width="30" height="30" viewBox="0 0 30 30"><defs><style>.cls-3 { fill: #0098ef; filter: url(#color-overlay-1); } .cls-4 { fill: #ffffff; }</style><filter id="color-overlay-1" filterUnits="userSpaceOnUse"><feFlood flood-color="#333" flood-opacity="1"/><feComposite operator="in" in2="SourceGraphic"/><feBlend in2="SourceGraphic" result="colorOverlay"/></filter></defs><g id="group-2"><circle id="circle-1" class="cls-3" cx="15" cy="15" r="15"/><path d="M22.202 21H7.798c-.44 0-.798-.358-.798-.8V9.8c0-.442.357-.8.798-.8h14.404c.44 0 .798.358.798.8v10.4c0 .442-.357.8-.798.8zM8.597 19.4h12.806v-8.1l-5.888 4.74c-.198.16-.446.21-.675.157-.135-.02-.266-.075-.38-.167l-5.863-4.716V19.4zm1.663-8.8l4.734 3.808 4.73-3.808H10.26z" id="path-1" class="cls-4" fill-rule="evenodd"/></g></svg>