<svg xmlns="http://www.w3.org/2000/svg" preserveAspectRatio="xMidYMid" width="36" height="37" viewBox="0 0 36 37"><defs><style>.cls-2 { fill: #f6f4ec; }</style></defs><path d="M35.977 2.258c0-1.23-1.02-2.25-2.248-2.25H2.255c-1.23 0-2.248 1.02-2.248 2.25v31.5c0 1.23 1.018 2.25 2.248 2.25H19.24V22.016h-4.497V16.83h4.496v-4.482c0-4.096 2.493-6.838 7.428-6.838 2.178 0 3.688.246 3.688.246v4.676h-3.372c-1.492 0-2.248.843-2.248 2.32v4.078h5.252l-.756 5.186h-4.496v13.992h8.993c1.228 0 2.247-1.02 2.247-2.25v-31.5z" id="path-1" class="cls-2" fill-rule="evenodd"/></svg>