<svg xmlns="http://www.w3.org/2000/svg" preserveAspectRatio="xMidYMid" width="30" height="30" viewBox="0 0 30 30"><defs><style>.cls-3 { fill: #222222; } .cls-4 { fill: #f4f2ef; }</style></defs><g id="group-3"><circle id="circle-1" class="cls-3" cx="15" cy="15" r="15"/><path d="M21.26 8H8.764C8.33 8 8 8.357 8 8.765v12.47c0 .433.357.765.765.765h6.706v-5.406h-1.835v-2.117h1.836v-1.555c0-1.81 1.097-2.805 2.73-2.805.764 0 1.427.05 1.63.076v1.887h-1.12c-.868 0-1.046.408-1.046 1.02v1.352h2.09l-.28 2.116h-1.81V22h3.57c.433 0 .764-.357.764-.765V8.765c.026-.408-.33-.765-.74-.765z" id="path-1" class="cls-4" fill-rule="evenodd"/></g></svg>