<svg xmlns="http://www.w3.org/2000/svg" preserveAspectRatio="xMidYMid" width="30" height="30" viewBox="0 0 30 30"><defs><style>.cls-3 { fill: #222222; } .cls-4 { fill: #ffffff; }</style></defs><g id="about"><circle id="circle-1" class="cls-3" cx="15" cy="15" r="15"/><path d="M17.577 18.355c-1.302 1.714-2.266 2.657-3.407 2.657-.482 0-.802-.365-.802-.905 0-.924 1.622-5.296 1.622-5.95 0-.232-.053-.443-.267-.443-.446 0-1.016.847-1.355 1.194l-.357-.462c.678-.848 2.248-2.658 3.318-2.658.59 0 .98.173.98 1.02 0 .983-1.836 5.43-1.836 6.22 0 .135.072.25.214.25.41 0 1.32-1.096 1.552-1.347l.34.425zM16.88 6.993c.59 0 1.107.558 1.107 1.194 0 .635-.518 1.194-1.106 1.194-.588 0-1.105-.558-1.105-1.193 0-.636.517-1.194 1.106-1.194z" id="path-1" class="cls-4" fill-rule="evenodd"/></g></svg>