<svg xmlns="http://www.w3.org/2000/svg" preserveAspectRatio="xMidYMid" width="80" height="21" viewBox="0 0 80 21"><defs><style>.cls-2 { fill: #484848; }</style></defs><path d="M78.69 15.626v.25c0 1.505.246 2.083 1.306 2.876l-1.93 2.25c-.842-.355-1.603-.987-1.958-1.7-.27.274-.57.548-.842.74-.68.493-1.658.77-2.8.77-3.1 0-4.784-1.592-4.784-4.39 0-3.292 2.256-4.827 6.686-4.827.273 0 .518 0 .816.027v-.576c0-1.563-.298-2.083-1.63-2.083-1.17 0-2.528.575-4.024 1.59L67.98 7.92c.736-.467 1.28-.74 2.257-1.15 1.36-.577 2.528-.823 3.806-.823 2.34 0 3.942.876 4.486 2.438.19.578.27 1.015.243 2.525l-.082 4.716zm-3.722-1.48c-2.53 0-3.4.467-3.4 2.14 0 1.095.68 1.836 1.605 1.836.68 0 1.358-.356 1.902-.96l.056-3.015h-.162zm-10.603 6.47c-1.548 0-2.798-.74-3.234-1.918-.27-.713-.324-1.152-.324-3.155V5.066c0-1.837-.056-2.962-.192-4.223l3.725-.85c.136.767.188 1.674.188 3.648v10.945c0 2.413.027 2.742.245 3.127.136.247.436.383.735.383.136 0 .218 0 .407-.054l.626 2.193c-.625.248-1.385.383-2.175.383zm-7.555 0c-1.55 0-2.8-.74-3.235-1.918-.273-.713-.327-1.152-.327-3.155V5.066c0-1.837-.053-2.962-.19-4.223l3.724-.85c.136.767.19 1.674.19 3.648v10.945c0 2.413.028 2.742.244 3.127.136.247.438.383.735.383.137 0 .22 0 .408-.054l.627 2.193c-.627.248-1.387.383-2.175.383zm-8.292-15.96c-1.223 0-2.228-1.015-2.228-2.276 0-1.262 1.033-2.277 2.283-2.277 1.224 0 2.203 1.015 2.203 2.277 0 1.26-1.008 2.276-2.258 2.276zM43.98 20.29H33.733v-2.277l6.552-9.187h-6.008v-2.58h10.33V8.77l-6.143 8.97h6.387l-.87 2.55zm-17.422.3c-3.78 0-6.252-2.853-6.252-7.267 0-4.416 2.5-7.352 6.252-7.352 1.984 0 3.533.687 4.73 2.114 1.115 1.316 1.604 2.853 1.604 5.13 0 2.412-.544 4.057-1.74 5.428-1.06 1.208-2.447 1.95-4.594 1.95zm1.63-11.163c-.354-.464-.925-.74-1.576-.74-.87 0-1.578.55-1.876 1.427-.245.74-.38 1.728-.38 3.128 0 1.616.162 2.823.46 3.536.328.768 1.143 1.152 1.85 1.152 1.576 0 2.256-1.428 2.256-4.744 0-1.893-.244-3.128-.733-3.76zM14.736 11.02c0-1.676-.19-2.003-1.144-2.003-.678 0-1.63.466-2.417 1.178V20.29H7.72v-9.134c0-1.756-.244-2.167-1.252-2.167-.678 0-1.6.354-2.39 1.068v10.23H.515V10.5C.516 8.47.38 7.59 0 6.903L3.29 6c.243.384.352.713.488 1.426C4.73 6.493 5.898 6 7.178 6 8.317 6 9.27 6.383 10 7.15c.19.19.382.44.545.684C11.825 6.52 12.967 6 14.49 6c1.087 0 2.12.328 2.744.877.79.686 1.034 1.508 1.034 3.428v9.984h-3.533v-9.27zm35.606 9.27h-3.644V6.492l3.645-.575v14.37z" id="path-1" class="cls-2" fill-rule="evenodd"/></svg>