<svg xmlns="http://www.w3.org/2000/svg" preserveAspectRatio="xMidYMid" width="36" height="36" viewBox="0 0 36 36"><defs><style>.cls-2 { fill: #ffffff; }</style></defs><path d="M18 36C8.06 36 0 27.94 0 18S8.06 0 18 0s18 8.06 18 18-8.06 18-18 18zm0-34.125C9.094 1.875 1.875 9.095 1.875 18c0 8.906 7.22 16.125 16.125 16.125 8.906 0 16.125-7.22 16.125-16.125 0-8.906-7.22-16.125-16.125-16.125zM19 23h-2v-4.006h-4.012v-1.98H17V13h2v4.013h4v1.98h-4V23z" id="path-1" class="cls-2" fill-rule="evenodd"/></svg>