<svg xmlns="http://www.w3.org/2000/svg" preserveAspectRatio="xMidYMid" width="30" height="30" viewBox="0 0 30 30"><defs><style>.cls-3 { fill: #0098ef; filter: url(#color-overlay-1); } .cls-4 { fill: #ffffff; }</style><filter id="color-overlay-1" filterUnits="userSpaceOnUse"><feFlood flood-color="#333" flood-opacity="1"/><feComposite operator="in" in2="SourceGraphic"/><feBlend in2="SourceGraphic" result="colorOverlay"/></filter></defs><g id="group-1"><circle id="circle-1" class="cls-3" cx="15" cy="15" r="15"/><path d="M18.025 16.79c-.51 0-.975.208-1.326.548l-3.776-2.052c.015-.105.025-.21.025-.32 0-.062-.005-.122-.01-.183l3.81-2.07c.345.31.79.497 1.276.497 1.09 0 1.974-.942 1.974-2.105C20 9.943 19.116 9 18.026 9c-1.09 0-1.975.942-1.975 2.105 0 .064.005.128.01.19l-3.806 2.07c-.345-.314-.79-.504-1.28-.504-1.09 0-1.974.943-1.974 2.106 0 1.162.884 2.105 1.975 2.105.44 0 .844-.154 1.172-.413l3.91 2.124c-.003.04-.006.076-.006.114 0 1.163.885 2.105 1.975 2.105S20 20.056 20 18.893c0-1.162-.884-2.105-1.975-2.105z" id="path-1" class="cls-4" fill-rule="evenodd"/></g></svg>