<svg xmlns="http://www.w3.org/2000/svg" preserveAspectRatio="xMidYMid" width="18" height="18" viewBox="0 0 18 18"><defs><style>.cls-2 { fill: #222222; }</style></defs><path d="M15.442 17.156h-.01c-.946 0-1.713-.767-1.713-1.714v-.01c0-.946.766-1.713 1.713-1.713h.01c.946 0 1.713.766 1.713 1.713v.01c0 .946-.767 1.713-1.714 1.713zm0-6.875h-.01c-.946 0-1.713-.766-1.713-1.713v-.01c0-.946.766-1.713 1.713-1.713h.01c.946 0 1.713.767 1.713 1.714v.01c0 .946-.767 1.713-1.714 1.713zm0-6.842h-.01c-.946 0-1.713-.768-1.713-1.715v-.01C13.72.77 14.485 0 15.432 0h.01c.946 0 1.713.768 1.713 1.714v.01c0 .946-.767 1.714-1.714 1.714zM8.598 17.156h-.01c-.945 0-1.713-.767-1.713-1.714v-.01c0-.946.768-1.713 1.714-1.713h.008c.947 0 1.715.766 1.715 1.713v.01c0 .946-.768 1.713-1.715 1.713zm0-6.875h-.01c-.945 0-1.713-.766-1.713-1.713v-.01c0-.946.768-1.713 1.714-1.713h.008c.947 0 1.715.767 1.715 1.714v.01c0 .946-.768 1.713-1.715 1.713zm0-6.842h-.01c-.945 0-1.713-.768-1.713-1.715v-.01C6.875.77 7.643 0 8.59 0h.008c.947 0 1.715.768 1.715 1.714v.01c0 .946-.768 1.714-1.715 1.714zM1.723 17.156h-.01C.77 17.156 0 16.39 0 15.442v-.01c0-.946.768-1.713 1.714-1.713h.01c.946 0 1.714.766 1.714 1.713v.01c0 .946-.768 1.713-1.715 1.713zm0-6.875h-.01C.77 10.28 0 9.515 0 8.568v-.01c0-.946.768-1.713 1.714-1.713h.01c.946 0 1.714.767 1.714 1.714v.01c0 .946-.768 1.713-1.715 1.713zm0-6.842h-.01C.77 3.438 0 2.67 0 1.723v-.01C0 .77.768 0 1.714 0h.01c.946 0 1.714.768 1.714 1.714v.01c0 .946-.768 1.714-1.715 1.714z" id="path-1" class="cls-2" fill-rule="evenodd"/></svg>