<svg xmlns="http://www.w3.org/2000/svg" preserveAspectRatio="xMidYMid" width="30" height="30" viewBox="0 0 30 30"><defs><style>.cls-3 { fill: #222222; } .cls-4 { fill: #ffffff; }</style></defs><g id="group-1"><circle id="circle-1" class="cls-3" cx="15" cy="15" r="15"/><path d="M22.98 11.428 18.37 10c-1.69 0-3.084 1.366-3.084 3.02 0 .228.02.477.085.683-2.57-.103-4.82-1.324-6.34-3.144-.26.454-.41.97-.41 1.53 0 1.055.537 1.986 1.373 2.524-.514-.02-.986-.145-1.393-.373v.043c0 1.47 1.07 2.69 2.464 2.98-.257.06-.535.103-.814.103-.193 0-.386-.02-.58-.063.387 1.18 1.523 2.05 2.873 2.09-1.05.807-2.38 1.304-3.814 1.304-.26 0-.494-.02-.73-.042C9.35 21.503 10.957 22 12.693 22c5.657 0 8.764-4.614 8.764-8.628v-.393c.6-.435 1.114-.952 1.543-1.573-.557.248-1.136.414-1.757.476.643-.373 1.114-.973 1.35-1.676-.6.352-1.243.6-1.95.745-.6-.58-1.393-.952-2.272-.952" id="path-1" class="cls-4" fill-rule="evenodd"/></g></svg>