<svg xmlns="http://www.w3.org/2000/svg" preserveAspectRatio="xMidYMid" width="36" height="30" viewBox="0 0 36 30"><defs><style>.cls-2 { fill: #f6f4ec; }</style></defs><path d="M35.977 3.46c-1.335.597-2.74 1-4.25 1.177C33.27 3.723 34.43 2.264 34.974.54 33.57 1.386 31.972 2 30.32 2.335 28.935.928 27.02.014 24.895.014c-4.074 0-7.358 3.287-7.358 7.365 0 .58.035 1.177.158 1.704-6.112-.334-11.522-3.11-15.192-7.576-.615 1.09-1 2.215-1 3.586 0 2.53 1.298 4.78 3.3 6.117-1.21-.034-2.335-.368-3.336-.913v.088c0 3.586 2.546 6.574 5.918 7.242-.632.176-1.3.264-1.967.264-.456 0-.913-.052-1.37-.14.914 2.918 3.67 5.098 6.867 5.133-2.494 2.004-5.708 3.498-9.15 3.498-.597 0-1.177-.034-1.756-.122 3.25 2.092 7.165 3.006 11.328 3.006 13.558 0 20.97-11.25 20.97-21.006V7.29c1.423-1.036 2.67-2.32 3.67-3.83z" id="path-1" class="cls-2" fill-rule="evenodd"/></svg>