<svg xmlns="http://www.w3.org/2000/svg" preserveAspectRatio="xMidYMid" width="56" height="56" viewBox="0 0 56 56"><defs><style>.cls-3 { fill: #ffffff; opacity: 0.5; } .cls-4 { font-size: 32px; opacity: 0.5; } .cls-5 { fill: #ffffff; font-size: 32px; font-family: &quot;FiraSans-Light&quot;; text-transform: uppercase; }</style></defs><g id="group-1"><path d="M54.81 30.808L30.808 54.81c-1.56 1.56-4.088 1.56-5.647 0l-24-24.002c-1.56-1.56-1.56-4.088 0-5.647l24-24c1.56-1.56 4.09-1.56 5.648 0l24.002 24c1.56 1.56 1.56 4.09 0 5.648zm-1.412-4.235L29.396 2.57c-.78-.78-2.044-.78-2.823 0L2.57 26.574c-.78.78-.78 2.044 0 2.823l24.003 24.002c.78.78 2.044.78 2.823 0l24.002-24.002c.78-.78.78-2.044 0-2.823z" id="path-1" class="cls-3" fill-rule="evenodd"/><text class="cls-4" x="24" y="40"><tspan class="cls-5">!</tspan></text></g></svg>